<svg width="22" height="20" viewBox="0 0 22 20" fill="none" xmlns="http://www.w3.org/2000/svg">
<path d="M12.2091 1.10215C11.7139 0.0987582 10.2831 0.0987682 9.78786 1.10215L7.42994 5.87987L2.15741 6.64601C1.05011 6.80691 0.60797 8.1677 1.40922 8.9487L5.22446 12.6676L4.3238 17.9189C4.13465 19.0217 5.29219 19.8627 6.28258 19.342L10.9985 16.8627L15.7144 19.342C16.7048 19.8627 17.8623 19.0217 17.6732 17.9189L16.7725 12.6676L20.5878 8.9487C21.389 8.1677 20.9469 6.80691 19.8396 6.64601L14.5671 5.87987L12.2091 1.10215ZM8.74014 6.61443L10.9985 2.03854L13.2569 6.61443C13.4535 7.01288 13.8336 7.28904 14.2733 7.35294L19.3231 8.0867L15.669 11.6486C15.3509 11.9587 15.2057 12.4055 15.2808 12.8435L16.1434 17.8729L11.6267 15.4983C11.2334 15.2915 10.7636 15.2915 10.3703 15.4983L5.85359 17.8729L6.7162 12.8435C6.79131 12.4055 6.64612 11.9587 6.32794 11.6486L2.67388 8.0867L7.72367 7.35294C8.16338 7.28904 8.5435 7.01288 8.74014 6.61443ZM0.16444 1.78102C-0.0943211 2.10446 -0.0418801 2.57643 0.28157 2.83519L2.78157 4.83519C3.10501 5.09395 3.57698 5.04151 3.83574 4.71806C4.0945 4.39461 4.04206 3.92265 3.71861 3.66389L1.21861 1.66389C0.89516 1.40513 0.42319 1.45757 0.16444 1.78102ZM21.8358 16.2181C22.0946 15.8946 22.0421 15.4226 21.7187 15.1639L19.2187 13.1639C18.8952 12.9051 18.4233 12.9576 18.1645 13.281C17.9057 13.6045 17.9582 14.0764 18.2816 14.3352L20.7816 16.3352C21.1051 16.5939 21.577 16.5415 21.8358 16.2181ZM0.28157 15.1639C-0.0418801 15.4226 -0.0943211 15.8946 0.16444 16.2181C0.42319 16.5415 0.89516 16.5939 1.21861 16.3352L3.71861 14.3352C4.04206 14.0764 4.0945 13.6045 3.83574 13.281C3.57698 12.9576 3.10501 12.9051 2.78157 13.1639L0.28157 15.1639ZM21.8358 1.78102C22.0946 2.10446 22.0421 2.57643 21.7187 2.83519L19.2187 4.83519C18.8952 5.09395 18.4233 5.04151 18.1645 4.71806C17.9057 4.39461 17.9582 3.92265 18.2816 3.66389L20.7816 1.66389C21.1051 1.40513 21.577 1.45757 21.8358 1.78102Z" fill="#FFD703"/>
</svg>
